<svg width="56" height="54" viewBox="0 0 56 54" fill="none" xmlns="http://www.w3.org/2000/svg">
<path d="M25.4 34.4998C25.35 34.4298 25.27 34.3798 25.17 34.3698C25.08 34.3598 24.99 34.3998 24.93 34.4598C24.93 34.4598 24.27 35.1598 24.09 35.3498C22.34 34.8898 19.96 34.6498 16.99 34.6498C15 34.6498 13.85 34.7498 12.16 34.9598C12.16 34.8798 12.16 34.7798 12.16 34.7798C12.16 32.5898 13.02 30.9098 14.78 29.6398C16.58 28.3398 18.19 27.8998 21.16 27.8998C22.36 27.8998 23.63 27.9398 24.93 28.3698C25.06 28.4098 25.2 28.3698 25.28 28.2598C25.36 28.1498 25.35 27.9998 25.26 27.8898C24.73 27.2598 24.46 26.2598 24.46 24.9198V19.5098C24.46 18.2298 24.79 17.1598 25.44 16.3298C25.52 16.2298 25.53 16.0998 25.47 15.9898C25.41 15.8798 25.29 15.8198 25.17 15.8398C24.13 15.9898 23.36 16.0598 22.88 16.0598C20.69 16.0598 18.44 15.0298 16.17 12.9798C16.06 12.8798 15.89 12.8798 15.77 12.9798C14.25 14.2998 12.83 14.9698 11.56 14.9698C11.06 14.9698 10.53 14.8198 10 14.5198C9.89004 14.4598 9.76004 14.4698 9.67004 14.5398C9.57004 14.6098 9.53004 14.7398 9.56004 14.8498C9.85004 16.0898 10.47 17.0698 11.38 17.7598C12.29 18.4498 13.37 18.7998 14.6 18.7998C16.04 18.7998 17.69 18.0798 19.48 16.6698C19.6 16.7098 19.72 16.7498 19.88 16.7998C19.88 17.2098 19.88 23.3898 19.88 23.3898C19.88 25.0298 19.59 25.3598 19.5 25.4298C19.4 25.4998 18.98 25.7098 16.68 26.3798C14.2 27.1498 12.43 28.3098 11.42 29.8498C10.41 31.3798 9.89004 33.4598 9.89004 36.0398C9.89004 36.9498 9.95004 37.8698 10.06 38.7598C10.08 38.9198 10.23 39.0398 10.39 39.0198C12.57 38.7898 14.56 38.6698 16.31 38.6698C18.49 38.6698 20.52 38.9698 22.33 39.5598C22.47 39.5998 22.62 39.5498 22.69 39.4198C23.35 38.2698 24.38 36.8998 25.78 35.3498C25.87 35.2398 25.88 35.0898 25.8 34.9698L25.4 34.4998Z" fill="#565656"/>
<path d="M44.9401 35.6599C44.8901 35.5899 44.8201 35.5499 44.7401 35.5299C44.6601 35.5099 44.5801 35.5299 44.5101 35.5799C44.5101 35.5799 43.8101 36.0799 43.5801 36.2399C42.9101 35.8399 42.2301 35.5499 41.5401 35.3599C41.5401 35.0299 41.5401 33.4799 41.5401 33.0399C41.8601 33.0399 42.3601 33.0399 42.3601 33.0399C43.3901 33.0399 44.1701 33.4099 44.7501 34.1599C44.8301 34.2599 44.9601 34.2999 45.0901 34.2599C45.2101 34.2199 45.3001 34.0999 45.3001 33.9699V33.5299L45.2301 32.5499L45.1701 31.7999L45.2501 31.1299L45.3401 30.3199L45.2901 29.5899C45.2801 29.4599 45.1901 29.3599 45.0601 29.3299C44.9301 29.2999 44.8001 29.3699 44.7301 29.4799C44.1501 30.4799 43.2101 30.9699 41.8401 30.9699C41.8401 30.9699 41.6901 30.9699 41.5401 30.9699C41.5401 30.3999 41.5401 18.6699 41.5401 18.4599C42.4301 17.7399 43.0301 16.8299 43.2601 15.7199C43.2601 15.6999 43.2701 15.6799 43.2701 15.6599C43.2701 15.5599 43.2301 15.4799 43.1501 15.4199C43.0601 15.3499 42.9301 15.3399 42.8301 15.3899C42.5101 15.5599 42.3501 15.5799 42.2801 15.5799C41.4101 15.5799 40.4001 14.5199 39.3601 12.5099C39.3101 12.4199 39.2201 12.3599 39.1101 12.3499C39.0101 12.3399 38.9101 12.3899 38.8401 12.4699C34.1901 18.9299 30.2201 23.7599 27.0201 26.8499C26.9501 26.9199 26.9201 27.0099 26.9301 27.0999C27.0101 27.7799 27.0601 29.1799 27.0601 31.2399L26.9701 33.0299C26.9701 33.1199 27.0001 33.2099 27.0701 33.2699C27.1401 33.3299 27.2301 33.3599 27.3201 33.3399C28.4101 33.1299 29.7801 33.0299 31.4001 33.0299C31.4001 33.0299 36.2901 33.0299 36.8301 33.0299C36.8301 33.4799 36.8301 35.2299 36.8301 35.5199C34.8801 36.3399 33.7201 37.6499 33.4301 39.4299C33.4301 39.4499 33.4301 39.4599 33.4301 39.4799C33.4301 39.5899 33.4901 39.6899 33.5801 39.7399C33.6901 39.7999 33.8301 39.7899 33.9301 39.7099C34.6201 39.1199 35.3001 38.8199 35.9701 38.8199C37.1901 38.8199 38.6301 39.3799 40.2401 40.4799C40.3601 40.5599 40.5201 40.5499 40.6201 40.4499C42.5201 38.6299 44.0801 37.3799 45.2501 36.7299C45.3301 36.6899 45.3801 36.6199 45.4001 36.5399C45.4201 36.4599 45.4101 36.3699 45.3601 36.2999L44.9401 35.6599ZM36.8501 30.9799C36.3401 30.9799 31.8501 30.9799 31.3301 30.9799C31.3301 30.4399 31.3301 24.5799 31.3301 24.3799C32.8401 22.6299 34.5701 20.4699 36.4501 17.9699C36.6201 18.0699 36.7301 18.1399 36.8501 18.2099C36.8501 18.5299 36.8501 30.4099 36.8501 30.9799Z" fill="#565656"/>
<path d="M27.55 0C12.33 0 0 12.01 0 26.82C0 41.63 12.33 53.64 27.55 53.64C42.77 53.64 55.1 41.63 55.1 26.82C55.1 12.01 42.76 0 27.55 0ZM47.69 44.33C47.05 44.26 46.4 44.24 45.74 44.27C40.66 44.52 36.47 47.79 34.91 52.2C34.38 51.77 33.82 51.38 33.21 51.04C28.8 48.56 23.46 49.1 19.69 51.99C19.49 51.35 19.23 50.72 18.9 50.11C16.58 45.7 11.79 43.33 7.01 43.77C7.19 43.13 7.33 42.46 7.39 41.78C7.9 36.85 5.19 32.33 0.93 30.18C1.44 29.74 1.92 29.25 2.36 28.71C5.53 24.83 5.78 19.61 3.39 15.56C4.07 15.46 4.74 15.3 5.42 15.08C10.24 13.5 13.36 9.23 13.61 4.57C14.24 4.84 14.89 5.06 15.58 5.23C20.51 6.45 25.5 4.51 28.32 0.72C28.69 1.28 29.12 1.82 29.6 2.32C33.05 5.92 38.27 6.94 42.72 5.29C42.73 5.93 42.79 6.57 42.92 7.22C43.83 12.08 47.7 15.69 52.39 16.61C52.04 17.17 51.72 17.76 51.46 18.38C49.55 22.9 50.75 27.91 54.09 31.16C53.53 31.43 52.99 31.74 52.47 32.1C48.37 34.95 46.63 39.83 47.69 44.33Z" fill="#565656"/>
</svg>
