<svg width="100" height="40" viewBox="0 0 100 40" fill="none" xmlns="http://www.w3.org/2000/svg">
<path fill-rule="evenodd" clip-rule="evenodd" d="M49.999 40C77.6133 40 100 31.0442 100 19.999C100 8.95369 77.6133 0 49.999 0C22.3867 0 0 8.95369 0 19.999C0 31.0442 22.3867 40 49.999 40Z" fill="#565656"/>
<path fill-rule="evenodd" clip-rule="evenodd" d="M49.9989 37.7195C76.7476 37.7195 98.4321 29.7854 98.4321 19.9988C98.4321 10.2123 76.7455 2.28027 49.9989 2.28027C23.2502 2.28027 1.5658 10.2144 1.5658 19.9988C1.5658 29.7854 23.2502 37.7195 49.9989 37.7195Z" fill="white"/>
<path fill-rule="evenodd" clip-rule="evenodd" d="M49.9991 36.5429C76.3746 36.5429 97.7593 29.1374 97.7593 19.9991C97.7593 10.8629 76.3767 3.45532 49.9991 3.45532C23.6214 3.45532 2.23877 10.8629 2.23877 19.9991C2.23877 29.1374 23.6214 36.5429 49.9991 36.5429Z" fill="#565656"/>
<path fill-rule="evenodd" clip-rule="evenodd" d="M37.0993 15.7256H39.2101L36.6591 23.3639C36.6591 23.3639 36.2189 24.9793 37.3634 23.9324C38.3738 23.0073 38.6379 22.4471 38.6379 22.4471H39.2541C39.2541 22.4471 37.8036 24.8912 36.6591 25.5037C35.5167 26.1142 33.9949 26.0261 33.9761 24.631C33.9656 23.7793 34.1962 23.5842 34.1962 23.5842C34.1962 23.5842 31.8653 26.2023 30.3707 25.9842C28.7714 25.7513 28.1279 24.5891 28.436 22.0129C28.6959 19.8353 31.249 16.3822 34.5923 15.7696C34.5923 15.7696 36.0869 15.4655 36.8352 16.4682L37.0993 15.7256Z" fill="white"/>
<path fill-rule="evenodd" clip-rule="evenodd" d="M36.087 18.432C36.087 18.432 35.2946 20.9641 34.1522 22.4053C33.515 23.2088 30.2828 26.0724 30.9431 22.055L31.2491 20.834C31.2491 20.834 32.1714 18.1215 34.5924 16.6446C35.7369 15.9439 36.7032 16.7285 36.087 18.432Z" fill="#565656"/>
<path fill-rule="evenodd" clip-rule="evenodd" d="M25.227 24.8912C22.9192 26.3891 19.993 25.852 19.993 25.852C14.8029 24.7171 14.7149 19.0423 18.2343 15.2011C22.2861 10.7767 27.9625 11.2341 29.3166 11.7103C30.8111 12.2348 30.8551 13.8501 29.8427 14.5047C28.9204 15.1025 27.1219 14.3179 27.996 12.5851C27.9855 12.6061 27.1114 12.1425 25.2689 12.497C20.7916 13.3613 18.5844 17.9976 18.4963 20.7899C18.3559 25.2436 21.586 24.9143 22.806 24.7192C24.6967 24.4129 25.2689 24.0206 26.4281 23.129H27.1156C27.1156 23.129 26.6754 23.9996 25.533 24.7192L25.227 24.8912Z" fill="white"/>
<path fill-rule="evenodd" clip-rule="evenodd" d="M43.2557 25.6338H41.277C41.277 25.6338 42.8826 20.3535 43.4758 18.4738C43.9391 17.0116 43.2998 17.0997 42.4424 17.9724L41.5621 19.0864H40.9689C40.9689 19.0864 43.0839 15.8033 44.7503 15.6816C44.7503 15.6816 46.1798 15.5725 45.6747 17.4711L45.1255 19.7409L46.9051 17.1228C47.6765 15.9669 48.6197 15.5746 49.7202 15.9019C49.7202 15.9019 50.8207 16.8396 49.8963 18.1277C49.1081 19.227 47.8064 18.6291 47.9615 17.276C47.9615 17.276 46.597 17.3641 44.3122 22.9276L43.2557 25.6338Z" fill="white"/>
<path fill-rule="evenodd" clip-rule="evenodd" d="M53.0614 25.6757H51.0826C51.0826 25.6757 52.6883 20.3975 53.2815 18.5178C53.7426 17.0556 53.1054 17.1416 52.2481 18.0164L51.3698 19.1304H50.7766C50.7766 19.1304 52.8916 15.8472 54.558 15.7255C54.558 15.7255 55.9876 15.6164 55.4824 17.515L54.9332 19.7849L56.715 17.1668C57.4842 16.0108 58.4296 15.6185 59.5301 15.9437C59.5301 15.9437 60.6284 16.8835 59.7061 18.1716C58.918 19.2709 57.6184 18.673 57.7714 17.3199C57.7714 17.3199 56.4089 17.408 54.122 22.9736L53.0614 25.6757Z" fill="white"/>
<path fill-rule="evenodd" clip-rule="evenodd" d="M62.3411 15.9209H64.4079C64.4079 15.9209 61.9449 23.1879 61.9009 23.4061C61.8569 23.6243 61.4188 25.3256 62.6052 24.2998C63.7916 23.2739 63.1544 23.9075 64.0788 22.8816H64.695C64.695 22.8816 63.0055 25.6928 61.0016 26.1102C59.2199 26.4816 59.308 24.9312 59.308 24.9312C59.308 24.9312 59.331 24.4277 59.8571 22.7264L62.3411 15.9209Z" fill="white"/>
<path fill-rule="evenodd" clip-rule="evenodd" d="M63.3449 14.8153C63.9884 15.0859 64.8017 14.6223 65.1623 13.7768C65.5249 12.9314 65.2943 12.0272 64.6529 11.7566C64.0094 11.486 63.1961 11.9496 62.8356 12.7971C62.475 13.6405 62.7014 14.5447 63.3449 14.8153Z" fill="white"/>
<path fill-rule="evenodd" clip-rule="evenodd" d="M78.9192 25.8078H76.9405C76.9405 25.8078 78.5461 20.5296 79.1393 18.6499C79.6004 17.1877 78.9632 17.2758 78.1059 18.1485L77.2255 19.2604H76.6323C76.6323 19.2604 78.7473 15.9772 80.4137 15.8577C80.4137 15.8577 81.8433 15.7465 81.336 17.6471L80.7869 19.917L82.5665 17.2968C83.3358 16.1409 84.2811 15.7465 85.3795 16.0758C85.3795 16.0758 86.4779 17.0136 85.5556 18.3017C84.7653 19.401 83.4657 18.8031 83.6208 17.4499C83.6208 17.4499 82.2583 17.5381 79.9715 23.1016L78.9192 25.8078Z" fill="white"/>
<path fill-rule="evenodd" clip-rule="evenodd" d="M66.3866 20.3072C66.3866 20.3072 68.2773 15.0269 73.6413 15.6814C73.6413 15.6814 77.2466 16.9464 74.7396 19.8268C74.7396 19.8268 73.5532 21.6163 68.6713 21.7904C68.6713 21.7904 67.3969 25.8938 72.0147 24.4967C72.0147 24.4967 73.6874 23.5358 73.9054 23.0554H74.4776C74.4776 23.0554 73.4212 25.7176 69.9479 26.3302C69.9479 26.3323 64.6258 26.8987 66.3866 20.3072Z" fill="white"/>
<path fill-rule="evenodd" clip-rule="evenodd" d="M68.8936 20.9178C68.8936 20.9178 69.4197 16.9884 72.2348 16.4661C72.2348 16.4661 73.9934 16.292 73.3352 18.5178C73.3352 18.5178 72.2788 20.5695 70.08 20.8758L68.8936 20.9178Z" fill="#565656"/>
</svg>
