<svg width="168" height="36" viewBox="0 0 168 36" fill="none" xmlns="http://www.w3.org/2000/svg">
<path d="M51.3364 28.2846C51.7116 28.2846 52.0521 28.2416 52.3609 28.1586C52.6669 28.0727 52.9382 27.9667 53.1806 27.8407C53.4201 27.7147 53.6221 27.5801 53.7953 27.4369C53.9656 27.2937 54.0926 27.1705 54.1791 27.0674C54.3667 27.2708 54.5572 27.5658 54.7535 27.9553C54.9497 28.3447 55.0478 28.6741 55.0478 28.9433C55.0478 29.1123 55.0132 29.2784 54.9468 29.4388C54.8776 29.5992 54.7333 29.7653 54.511 29.9342C54.1878 30.172 53.726 30.3925 53.1315 30.593C52.5341 30.7963 51.7751 30.8994 50.8516 30.8994C50.2397 30.8994 49.5759 30.8135 48.8573 30.6445C48.1445 30.4755 47.4778 30.1548 46.8631 29.6794C46.2512 29.2068 45.7404 28.551 45.3306 27.7147C44.9237 26.8755 44.7188 25.7815 44.7188 24.4297C44.7188 23.1438 44.9323 22.0927 45.3594 21.2822C45.7866 20.4689 46.3147 19.8273 46.9439 19.3548C47.5759 18.8822 48.2455 18.5557 48.9497 18.3782C49.6596 18.2006 50.2917 18.1118 50.8544 18.1118C51.5557 18.1118 52.2022 18.1863 52.7996 18.3381C53.397 18.4899 53.8905 18.6932 54.283 18.9481C54.6063 19.1514 54.8343 19.3462 54.9613 19.5323C55.0882 19.7185 55.1517 19.939 55.1517 20.1911C55.1517 20.4288 55.0767 20.7209 54.9208 21.0674C54.7679 21.414 54.5716 21.7319 54.3321 22.0183C54.0579 21.729 53.6568 21.4426 53.1315 21.1562C52.6034 20.8669 52.0117 20.7237 51.3682 20.7237C50.2426 20.7237 49.4403 21.0674 48.9641 21.7519C48.485 22.4393 48.2484 23.3128 48.2484 24.3782C48.2484 24.9195 48.3003 25.4264 48.4042 25.8989C48.5052 26.3715 48.6813 26.7868 48.9266 27.1419C49.1748 27.497 49.4922 27.7777 49.8876 27.9782C50.2715 28.1844 50.7563 28.2846 51.3364 28.2846Z" fill="#565656"/>
<path d="M62.5457 28.3131C62.9729 28.3131 63.3509 28.2644 63.6742 28.1727C64.0003 28.0811 64.2889 27.9665 64.5458 27.8319C64.8026 27.6973 65.0277 27.5484 65.2153 27.388C65.4058 27.2276 65.5732 27.0787 65.729 26.9441C65.9311 27.199 66.1475 27.5226 66.3697 27.9207C66.5891 28.3159 66.7045 28.6424 66.7045 28.8973C66.7045 29.2696 66.4909 29.6076 66.0638 29.9112C65.7059 30.1832 65.198 30.4152 64.5429 30.61C63.8849 30.8047 63.1143 30.9021 62.2283 30.9021C61.426 30.9021 60.6381 30.8019 59.8617 30.5985C59.0854 30.3952 58.3956 30.04 57.7925 29.5331C57.1864 29.0262 56.6958 28.3446 56.3206 27.4911C55.9454 26.6377 55.7578 25.5579 55.7578 24.2548C55.7578 23.1894 55.9223 22.273 56.2571 21.5026C56.5919 20.7322 57.0334 20.0935 57.5876 19.5866C58.1417 19.0797 58.7679 18.7073 59.4664 18.4696C60.1648 18.2319 60.8805 18.1145 61.6136 18.1145C62.5688 18.1145 63.3769 18.2606 64.0436 18.5584C64.7074 18.8563 65.2471 19.2515 65.6655 19.7498C66.084 20.251 66.387 20.8209 66.5746 21.4625C66.7622 22.1069 66.8546 22.7828 66.8546 23.4902V23.8453C66.8546 23.9799 66.8488 24.126 66.843 24.2777C66.8344 24.4295 66.8257 24.5785 66.8171 24.7217C66.8084 24.8649 66.794 24.9823 66.7767 25.0653H59.2355C59.3047 25.9961 59.5962 26.7694 60.1071 27.388C60.6237 28.0009 61.4346 28.3131 62.5457 28.3131ZM63.7117 23.1608C63.7117 22.3503 63.553 21.6887 63.2355 21.1818C62.918 20.6749 62.3466 20.4229 61.5241 20.4229C60.8228 20.4229 60.26 20.6606 59.8387 21.1417C59.4202 21.6257 59.2095 22.2959 59.2095 23.1608H63.7117Z" fill="#565656"/>
<path d="M71.8648 19.2258C72.1217 18.9737 72.4969 18.7246 72.9933 18.4783C73.4868 18.2348 74.1246 18.1117 74.9096 18.1117C75.5763 18.1117 76.2083 18.2091 76.8144 18.4038C77.4176 18.6014 77.9572 18.9336 78.4248 19.4062C78.8923 19.8788 79.2675 20.5031 79.5503 21.2706C79.8303 22.041 79.9746 23.0005 79.9746 24.1489C79.9746 25.4692 79.8216 26.5575 79.5157 27.4224C79.2069 28.2845 78.8115 28.9661 78.3267 29.4644C77.8418 29.9628 77.2935 30.3122 76.6903 30.5155C76.0842 30.7217 75.4753 30.8219 74.8605 30.8219C74.3151 30.8219 73.8418 30.7589 73.4406 30.6301C73.0395 30.5012 72.7076 30.3609 72.442 30.2091C72.1765 30.0544 71.9745 29.9055 71.8302 29.7594C71.6859 29.6134 71.5964 29.516 71.5618 29.4644C71.5618 29.7394 71.4925 29.9742 71.3569 30.1718C71.2213 30.3666 70.9817 30.4668 70.6412 30.4668H68.3929V12.5785C68.3929 12.5613 68.5199 12.5413 68.7768 12.5155C69.0336 12.4897 69.2963 12.4783 69.5704 12.4783C69.8446 12.4783 70.1217 12.5012 70.4016 12.5527C70.6816 12.6043 70.9298 12.7074 71.1433 12.8592C71.3569 13.011 71.5301 13.2172 71.6686 13.4807C71.8042 13.7413 71.8706 14.085 71.8706 14.5088V19.2258H71.8648ZM76.344 24.189C76.344 23.6678 76.3007 23.1838 76.217 22.7341C76.1333 22.2873 75.9919 21.9036 75.7956 21.5828C75.5994 21.262 75.3367 21.01 75.002 20.8239C74.6701 20.6377 74.2631 20.5461 73.7869 20.5461C73.0712 20.5461 72.5719 20.6807 72.292 20.9499C72.012 21.2219 71.8677 21.5227 71.8677 21.8606V27.3508C72.0063 27.4854 72.2487 27.6487 72.5979 27.8434C72.9471 28.0382 73.3858 28.1356 73.9168 28.1356C74.7855 28.1356 75.4089 27.7947 75.7841 27.1103C76.1535 26.4286 76.344 25.452 76.344 24.189Z" fill="#565656"/>
<path d="M89.308 18.4412C89.3253 18.4412 89.4609 18.4297 89.7178 18.4039C89.9718 18.3782 90.22 18.3667 90.4595 18.3667C90.751 18.3667 91.0367 18.4011 91.3166 18.4669C91.5995 18.5357 91.8448 18.6445 92.0584 18.7963C92.2719 18.9509 92.4451 19.1572 92.5836 19.4178C92.7192 19.6813 92.7885 20.0135 92.7885 20.4202V30.4698H90.4624C90.0353 30.4698 89.7669 30.3552 89.6572 30.1261C89.5475 29.897 89.4898 29.5648 89.4898 29.1237C89.2012 29.5132 88.7539 29.8712 88.1478 30.2006C87.5417 30.5299 86.7365 30.6961 85.7293 30.6961C84.5201 30.6961 83.6254 30.4583 83.0453 29.9858C82.4652 29.5132 82.09 28.886 81.9197 28.1099C81.8332 27.7204 81.7783 27.2965 81.7552 26.8412C81.7293 26.3858 81.7148 25.9361 81.7148 25.498V18.4412C81.8332 18.4412 81.963 18.4326 82.0987 18.4154C82.217 18.3982 82.3411 18.3867 82.471 18.3782C82.598 18.3696 82.7221 18.3667 82.8404 18.3667C83.5244 18.3667 84.0843 18.5099 84.5287 18.7963C84.9732 19.0856 85.1954 19.6011 85.1954 20.3457V25.3433C85.1954 25.7156 85.2069 26.065 85.2358 26.3829C85.2618 26.7037 85.3281 26.9815 85.4378 27.2077C85.5475 27.434 85.7293 27.6144 85.9746 27.7404C86.2199 27.8665 86.5662 27.9295 87.0107 27.9295C87.6398 27.9295 88.1824 27.7977 88.6326 27.5342C89.0857 27.2708 89.3109 26.9471 89.3109 26.5576V18.4412H89.308Z" fill="#565656"/>
<path d="M102.217 19.5838C102.491 19.2631 102.913 18.9366 103.493 18.6044C104.07 18.275 104.803 18.1089 105.683 18.1089C106.312 18.1089 106.913 18.2149 107.481 18.4268C108.05 18.6387 108.555 18.9795 108.999 19.4549C109.441 19.9275 109.793 20.5547 110.056 21.3308C110.318 22.1098 110.451 23.0664 110.451 24.1977C110.451 25.518 110.298 26.6063 109.992 27.4597C109.686 28.3132 109.291 28.9891 108.806 29.4874C108.321 29.9857 107.781 30.338 107.187 30.5413C106.592 30.7447 105.998 30.8478 105.403 30.8478C104.91 30.8478 104.483 30.7934 104.116 30.6817C103.75 30.5728 103.441 30.4497 103.187 30.3122C102.933 30.1776 102.737 30.043 102.601 29.9055C102.465 29.7709 102.382 29.6793 102.344 29.6249V35.9943H98.8694V18.4669C98.9531 18.4497 99.057 18.4325 99.1782 18.4153C99.2821 18.3981 99.4033 18.3867 99.5389 18.3781C99.6775 18.3695 99.8391 18.3666 100.03 18.3666C100.595 18.3666 101.077 18.4583 101.473 18.6444C101.865 18.8306 102.116 19.1428 102.217 19.5838ZM106.82 24.2779C106.82 23.7681 106.777 23.2984 106.693 22.8573C106.61 22.4191 106.468 22.0382 106.275 21.7175C106.082 21.3967 105.816 21.1476 105.487 20.9671C105.155 20.7896 104.754 20.7008 104.281 20.7008C103.568 20.7008 103.071 20.8354 102.794 21.1075C102.514 21.3767 102.373 21.6745 102.373 21.9953V27.3767C102.509 27.5113 102.751 27.6745 103.097 27.8578C103.447 28.044 103.848 28.1385 104.304 28.1385C105.17 28.1385 105.805 27.8005 106.211 27.1246C106.615 26.443 106.82 25.495 106.82 24.2779Z" fill="#565656"/>
<path d="M122.137 27.5257C122.137 28.8631 122.333 29.8369 122.725 30.444C122.419 30.5615 122.134 30.6445 121.868 30.6961C121.603 30.7448 121.328 30.7705 121.037 30.7705C120.425 30.7705 119.96 30.6531 119.643 30.4154C119.326 30.1777 119.126 29.8397 119.043 29.4016C118.667 29.7911 118.174 30.1204 117.559 30.3896C116.945 30.6617 116.194 30.7963 115.308 30.7963C114.849 30.7963 114.388 30.7333 113.929 30.6073C113.47 30.4784 113.051 30.2722 112.676 29.9858C112.298 29.6994 111.992 29.3156 111.755 28.8345C111.516 28.3533 111.398 27.7662 111.398 27.076C111.398 26.2168 111.605 25.518 112.024 24.9767C112.442 24.4383 112.965 24.0116 113.597 23.6994C114.229 23.3872 114.91 23.1724 115.643 23.055C116.376 22.9376 117.048 22.8631 117.663 22.8259C117.865 22.8087 118.067 22.8001 118.263 22.8001H118.812V22.339C118.812 21.6889 118.639 21.2249 118.287 20.9529C117.937 20.6808 117.369 20.5433 116.587 20.5433C115.854 20.5433 115.201 20.6607 114.63 20.8985C114.059 21.1362 113.502 21.4054 112.956 21.7118C112.717 21.4226 112.526 21.1075 112.382 20.761C112.237 20.4144 112.165 20.1567 112.165 19.9877C112.165 19.75 112.298 19.5237 112.561 19.3032C112.823 19.0856 113.187 18.8851 113.646 18.7075C114.108 18.53 114.636 18.3868 115.233 18.2751C115.828 18.1662 116.46 18.1118 117.123 18.1118C118.047 18.1118 118.826 18.2035 119.464 18.3896C120.102 18.5758 120.624 18.8622 121.025 19.2517C121.427 19.6412 121.712 20.128 121.883 20.7123C122.053 21.2965 122.137 21.9782 122.137 22.7543V27.5257ZM118.867 24.5815H118.506C118.388 24.5815 118.266 24.5901 118.148 24.6073C117.721 24.6416 117.3 24.6932 116.881 24.7591C116.463 24.8278 116.09 24.9452 115.77 25.1142C115.447 25.2832 115.181 25.5037 114.976 25.7729C114.771 26.045 114.667 26.3915 114.667 26.8125C114.667 27.2851 114.803 27.686 115.077 28.0183C115.349 28.3476 115.81 28.5109 116.457 28.5109C116.78 28.5109 117.086 28.4708 117.377 28.3848C117.666 28.3018 117.923 28.1901 118.145 28.0555C118.367 27.918 118.543 27.772 118.67 27.6116C118.797 27.4512 118.864 27.3023 118.864 27.1677V24.5815H118.867Z" fill="#565656"/>
<path d="M130.497 28.2846C130.873 28.2846 131.213 28.2416 131.522 28.1586C131.828 28.0727 132.102 27.9667 132.342 27.8407C132.578 27.7147 132.783 27.5801 132.953 27.4369C133.124 27.2937 133.254 27.1705 133.337 27.0674C133.525 27.2708 133.715 27.5658 133.912 27.9553C134.108 28.3447 134.206 28.6741 134.206 28.9433C134.206 29.1123 134.171 29.2784 134.105 29.4388C134.036 29.5992 133.891 29.7653 133.669 29.9342C133.346 30.172 132.887 30.3925 132.29 30.593C131.692 30.7963 130.933 30.8994 130.012 30.8994C129.398 30.8994 128.734 30.8135 128.018 30.6445C127.303 30.4755 126.639 30.1548 126.021 29.6794C125.409 29.2068 124.898 28.551 124.489 27.7147C124.079 26.8755 123.874 25.7815 123.874 24.4297C123.874 23.1438 124.087 22.0927 124.512 21.2822C124.939 20.4689 125.467 19.8273 126.096 19.3548C126.728 18.8822 127.395 18.5557 128.105 18.3782C128.812 18.2006 129.447 18.1118 130.01 18.1118C130.708 18.1118 131.354 18.1863 131.952 18.3381C132.546 18.4899 133.043 18.6932 133.435 18.9481C133.759 19.1514 133.984 19.3462 134.114 19.5323C134.241 19.7185 134.304 19.939 134.304 20.1911C134.304 20.4288 134.229 20.7209 134.076 21.0674C133.923 21.414 133.727 21.7319 133.49 22.0183C133.216 21.729 132.815 21.4426 132.287 21.1562C131.756 20.8669 131.167 20.7237 130.523 20.7237C129.398 20.7237 128.595 21.0674 128.119 21.7519C127.64 22.4393 127.404 23.3128 127.404 24.3782C127.404 24.9195 127.455 25.4264 127.556 25.8989C127.657 26.3715 127.834 26.7868 128.079 27.1419C128.327 27.497 128.645 27.7777 129.04 27.9782C129.432 28.1844 129.917 28.2846 130.497 28.2846Z" fill="#565656"/>
<path d="M138.933 14.4057C138.933 14.947 138.751 15.3881 138.385 15.726C138.018 16.064 137.58 16.2329 137.069 16.2329C136.541 16.2329 136.096 16.064 135.738 15.726C135.38 15.3881 135.202 14.947 135.202 14.4057C135.202 13.8644 135.38 13.4205 135.738 13.074C136.096 12.7274 136.541 12.5527 137.069 12.5527C137.58 12.5527 138.021 12.7274 138.385 13.074C138.754 13.4234 138.933 13.8644 138.933 14.4057ZM138.91 30.6215C138.841 30.6558 138.688 30.6816 138.451 30.6959C138.212 30.716 137.955 30.7217 137.681 30.7217C137.34 30.7217 137.034 30.6931 136.763 30.6329C136.489 30.5728 136.255 30.464 136.059 30.3036C135.865 30.1432 135.709 29.9284 135.6 29.6563C135.49 29.3842 135.432 29.0377 135.432 28.6167V18.4668C135.432 18.4496 135.559 18.4296 135.816 18.4038C136.07 18.378 136.336 18.3637 136.61 18.3637C136.884 18.3637 137.155 18.3895 137.43 18.441C137.701 18.4897 137.949 18.59 138.171 18.7332C138.393 18.8764 138.57 19.0797 138.708 19.3403C138.844 19.6038 138.913 19.9446 138.913 20.3685V30.6215H138.91Z" fill="#565656"/>
<path d="M154.853 14.4057C154.853 14.947 154.668 15.3881 154.301 15.726C153.935 16.064 153.496 16.2329 152.985 16.2329C152.454 16.2329 152.013 16.064 151.655 15.726C151.297 15.3881 151.118 14.947 151.118 14.4057C151.118 13.8644 151.297 13.4205 151.655 13.074C152.013 12.7274 152.454 12.5527 152.985 12.5527C153.496 12.5527 153.935 12.7274 154.301 13.074C154.671 13.4234 154.853 13.8644 154.853 14.4057ZM154.829 30.6215C154.76 30.6558 154.607 30.6816 154.371 30.6959C154.131 30.716 153.874 30.7217 153.603 30.7217C153.262 30.7217 152.954 30.6931 152.682 30.6329C152.408 30.5728 152.174 30.464 151.978 30.3036C151.782 30.1432 151.629 29.9284 151.516 29.6563C151.407 29.3842 151.352 29.0377 151.352 28.6167V18.4668C151.352 18.4496 151.479 18.4296 151.736 18.4038C151.99 18.378 152.255 18.3637 152.529 18.3637C152.803 18.3637 153.075 18.3895 153.349 18.441C153.62 18.4897 153.868 18.59 154.091 18.7332C154.31 18.8764 154.489 19.0797 154.627 19.3403C154.763 19.6038 154.832 19.9446 154.832 20.3685V30.6215H154.829Z" fill="#565656"/>
<path d="M163.187 28.2846C163.563 28.2846 163.903 28.2416 164.212 28.1586C164.518 28.0727 164.789 27.9667 165.032 27.8407C165.271 27.7147 165.476 27.5801 165.643 27.4369C165.814 27.2937 165.944 27.1705 166.027 27.0674C166.215 27.2708 166.405 27.5658 166.602 27.9553C166.798 28.3447 166.896 28.6741 166.896 28.9433C166.896 29.1123 166.861 29.2784 166.795 29.4388C166.726 29.5992 166.581 29.7653 166.359 29.9342C166.036 30.172 165.574 30.3925 164.98 30.593C164.382 30.7963 163.626 30.8994 162.703 30.8994C162.091 30.8994 161.424 30.8135 160.708 30.6445C159.995 30.4755 159.329 30.1548 158.714 29.6794C158.102 29.2068 157.591 28.551 157.182 27.7147C156.772 26.8755 156.57 25.7815 156.57 24.4297C156.57 23.1438 156.78 22.0927 157.208 21.2822C157.635 20.4689 158.163 19.8273 158.795 19.3548C159.427 18.8822 160.096 18.5557 160.801 18.3782C161.508 18.2006 162.143 18.1118 162.705 18.1118C163.407 18.1118 164.05 18.1863 164.651 18.3381C165.248 18.4899 165.741 18.6932 166.134 18.9481C166.457 19.1514 166.685 19.3462 166.812 19.5323C166.942 19.7185 167.006 19.939 167.006 20.1911C167.006 20.4288 166.928 20.7209 166.778 21.0674C166.622 21.414 166.428 21.7319 166.189 22.0183C165.915 21.729 165.513 21.4426 164.988 21.1562C164.46 20.8669 163.868 20.7237 163.222 20.7237C162.099 20.7237 161.297 21.0674 160.821 21.7519C160.345 22.4393 160.105 23.3128 160.105 24.3782C160.105 24.9195 160.157 25.4264 160.258 25.8989C160.359 26.3715 160.535 26.7868 160.78 27.1419C161.029 27.497 161.349 27.7777 161.741 27.9782C162.125 28.1844 162.607 28.2846 163.187 28.2846Z" fill="#565656"/>
<path d="M144.639 17.1981C144.639 16.3847 144.829 15.8119 145.213 15.4739C145.597 15.136 146.114 14.9642 146.76 14.9642C147.306 14.9642 147.796 15.0587 148.229 15.242C148.567 15.388 148.85 15.5742 149.101 15.7804L150.024 14.4859C150.024 14.4859 150.483 13.6725 149.583 13.0482C149.184 12.7961 148.694 12.6071 148.102 12.4782C147.482 12.3436 146.861 12.2749 146.249 12.2749C144.627 12.2749 143.372 12.7016 142.489 13.558C141.603 14.4114 141.161 15.6601 141.161 17.3012V30.4697H144.639V21.0043H149.008V18.3895H144.639V17.1981Z" fill="#565656"/>
<path d="M49.9599 13.1599C49.9599 13.1599 51.8647 10.8401 49.905 9.50262C47.8213 8.07923 39.4172 6.67303 29.3854 14.6291C19.3507 22.5823 17.3997 28.0439 15.9596 32.0649C15.9596 32.0649 20.9149 24.7847 26.1386 21.0272C26.1386 21.0272 24.6985 21.9208 22.9842 27.5542C22.9842 27.5542 25.2411 23.3012 38.4735 14.8267C38.4735 14.8267 49.3048 8.85537 49.9599 13.1599Z" fill="#565656"/>
<path d="M45.3192 7.38892C45.3192 7.38892 44.3927 6.32639 41.7953 6.2376C41.7953 6.2376 40.9439 7.38032 39.4374 7.42328C38.1445 7.45765 37.5817 6.6672 37.2873 6.38653C38.9006 6.99942 40.0637 6.12018 40.0637 6.12018C40.0637 6.12018 35.0766 5.28963 27.5874 6.49822C27.5874 6.49822 29.6942 5.36123 34.231 4.49059C38.1964 3.72877 46.4909 3.61994 45.3192 7.38892Z" fill="#565656"/>
<path d="M26.9524 12.7732C26.9524 12.7732 15.7719 21.6601 7.13403 18.5842C7.89883 24.2749 14.049 23.0749 14.049 23.0749C14.049 23.0749 20.404 22.5221 26.9524 12.7732Z" fill="#565656"/>
<path d="M26.407 6.779C26.407 6.779 14.0836 8.99284 6.90607 0C6.90607 0 4.12394 6.05155 10.6723 8.27971C10.6752 8.27971 18.303 10.9947 26.407 6.779Z" fill="#565656"/>
<path d="M0.0834743 7.24878C-0.2109 8.97288 0.0401836 14.486 4.75595 15.8435C16.2568 19.1972 29.7576 8.84687 29.7576 8.84687C11.1774 14.5519 3.65638 9.56 0.0834743 7.24878Z" fill="#565656"/>
</svg>
