<svg width="38" height="52" viewBox="0 0 38 52" fill="none" xmlns="http://www.w3.org/2000/svg">
<path d="M5.1044 46.9262L4.65894 44.3284C4.53199 43.5797 4.3693 42.4094 4.24556 41.5989H4.19698C4.06682 42.4157 3.88488 43.619 3.75151 44.3347L3.27214 46.9262H5.1044ZM3.03245 48.6188L2.45316 51.5016H0.313843L2.9825 39.5081H5.60486L8.02924 51.5021H5.87846L5.31201 48.6193H3.03245V48.6188Z" fill="#565656"/>
<path d="M12.8985 46.1442C12.8985 45.9846 12.8985 45.7974 12.8665 45.6265C12.7812 45.0343 12.4613 44.5012 11.9462 44.5012C11.0631 44.5012 10.7381 45.7532 10.7381 47.2181C10.7381 48.9008 11.2015 49.8587 11.9155 49.8587C12.2423 49.8587 12.6185 49.6941 12.8229 48.9878C12.8729 48.8471 12.8985 48.6586 12.8985 48.4385V46.1442ZM15.0947 39.1897V49.0149C15.0947 49.7938 15.135 50.7517 15.1671 51.5004H13.2702L13.1465 50.5014H13.1016C12.7831 51.1175 12.0897 51.6411 11.2611 51.6411C9.44483 51.6411 8.54382 49.6684 8.54382 47.1779C8.54382 44.1431 9.88709 42.6674 11.3509 42.6674C12.1167 42.6674 12.6121 43.0363 12.8614 43.5703H12.8985V39.1897H15.0947Z" fill="#565656"/>
<path d="M19.6685 49.9837C20.5067 49.9837 20.7143 48.4291 20.7143 47.1419C20.7143 45.9183 20.5067 44.3236 19.6318 44.3236C18.7051 44.3236 18.5104 45.9179 18.5104 47.1419C18.5104 48.619 18.7551 49.9837 19.6492 49.9837H19.6685ZM19.6263 51.6412C17.6025 51.6412 16.333 50.0424 16.333 47.1798C16.333 44.0561 17.9627 42.6675 19.6776 42.6675C21.674 42.6675 22.9256 44.3443 22.9256 47.1289C22.9256 50.7067 20.9645 51.6407 19.6437 51.6407H19.6263V51.6412Z" fill="#565656"/>
<path d="M26.3495 48.397C26.3495 48.6139 26.3898 48.8165 26.4366 48.9527C26.657 49.6797 27.0301 49.8583 27.3293 49.8583C28.179 49.8583 28.5214 48.7989 28.5214 47.1049C28.5214 45.5629 28.1593 44.5008 27.3192 44.5008C26.9027 44.5008 26.5521 44.9459 26.4311 45.424C26.3889 45.5742 26.349 45.8082 26.349 45.9701V48.397H26.3495ZM24.1533 39.1897H26.3495V43.7174H26.3848C26.8174 43.049 27.3935 42.6674 28.2299 42.6674C29.8852 42.6674 30.717 44.5197 30.717 46.9421C30.717 50.0026 29.4764 51.6407 27.8692 51.6407C27.1034 51.6407 26.5933 51.3065 26.1332 50.4599H26.0869L25.9645 51.4999H24.0791C24.1112 50.7797 24.1529 49.7933 24.1529 49.0144V39.1897H24.1533Z" fill="#565656"/>
<path d="M35.9795 46.3263C35.991 45.1059 35.6271 44.2504 34.9305 44.2504C34.1358 44.2504 33.7976 45.3955 33.7737 46.3263H35.9795ZM33.7655 47.8544C33.7911 49.4261 34.6312 49.938 35.6734 49.938C36.3342 49.938 36.9007 49.7937 37.3191 49.639L37.6152 51.1936C37.0327 51.4403 36.1335 51.5954 35.271 51.5954C32.9144 51.5954 31.6271 50.0106 31.6271 47.3037C31.6271 44.3987 33.1202 42.6538 35.0698 42.6538C36.9538 42.6538 37.9978 44.1958 37.9978 46.7129C37.9978 47.2892 37.9735 47.614 37.935 47.867L33.7655 47.8544Z" fill="#565656"/>
<path d="M23.9529 0H38.0001V33.0961L23.9529 0Z" fill="#565656"/>
<path d="M14.0555 0H0V33.0961L14.0555 0Z" fill="#565656"/>
<path d="M12.8622 26.4376L19.0061 12.1953L27.9552 33.0944H22.0913L19.4144 26.4376H12.8622Z" fill="#565656"/>
</svg>
