<svg width="45" height="68" viewBox="0 0 45 68" fill="none" xmlns="http://www.w3.org/2000/svg">
<path d="M40.2015 64.9345C39.5245 63.939 39.0514 63.426 38.9021 63.2839C38.7529 63.1407 38.3695 62.7599 38.3695 62.7599C38.3695 62.7599 37.9618 62.5272 37.8211 62.4587C37.6828 62.3864 37.1562 62.253 36.973 61.7559C36.7959 61.2661 36.8796 60.9122 36.8796 60.9122C36.8796 60.9122 36.8092 60.7176 37.0737 60.6539C37.0737 60.6539 37.064 60.5412 37.2096 60.4727C37.2096 60.4727 37.0543 60.1837 36.9924 59.9572C36.9294 59.7331 36.8602 59.5078 36.893 59.3364C36.9269 59.1638 36.734 58.7022 36.4829 58.3936C36.1771 57.9443 35.7003 57.288 35.6069 57.1692C35.4734 56.999 34.6375 55.6522 34.4725 55.3791C34.3075 55.1024 33.6475 54.2575 33.4267 54.0421C33.2095 53.829 32.5288 53.169 32.0678 51.9373C31.6007 50.7055 31.2404 49.584 31.2185 49.4689C31.1894 49.3525 31.0766 49.0305 30.6847 48.5922C30.3001 48.1526 29.7772 47.5465 29.6049 47.2919C29.4362 47.0359 28.6246 45.9168 28.4656 45.7173C28.3128 45.5201 27.421 44.2235 27.0231 43.5451C26.6239 42.8607 25.3597 41.4049 24.9108 41.0792C24.9108 41.0792 24.8149 41.1392 24.7263 41.0657C24.6366 40.9898 24.4995 40.8441 24.4995 40.8441C24.4995 40.8441 24.4728 40.8049 24.4728 40.7755C24.4728 40.7755 24.3927 40.5331 23.6744 39.7458C23.4925 39.5401 23.3918 39.2646 23.2365 39.0356C23.1151 38.8642 22.9501 38.7246 22.8506 38.5299C22.7596 38.3353 22.6492 38.1724 22.5291 37.99C22.4272 37.8332 22.1409 37.33 22.0936 37.2247C22.0475 37.1255 22.0547 37.1255 22.0001 37.0545C21.9443 36.9884 21.8351 36.8023 21.806 36.6639C21.806 36.6639 21.1848 37.2014 21.0696 37.3312C20.9519 37.4635 20.6109 37.8479 20.3938 38.0071C20.1742 38.1638 19.5251 38.683 19.3613 38.8324C19.2023 38.9817 18.0231 40.0005 17.8277 40.1743C17.6275 40.3457 17.0901 40.8747 17.0476 40.9984C17.0148 41.0975 16.9517 41.0902 16.8862 41.1453C16.8171 41.2004 16.7394 41.2126 16.7006 41.2653C16.6618 41.3216 16.5526 41.2714 16.4664 41.2224C16.4664 41.2224 14.6356 42.3109 14.0144 42.6134C13.3932 42.9158 11.6534 43.8317 11.4714 43.9688C11.287 44.1084 10.9255 44.39 10.8078 44.5137C10.6925 44.6361 10.4887 44.8712 10.4098 44.9373C10.4098 44.9373 10.735 45.8348 10.7884 46.4482C10.8429 47.0568 10.9339 48.0265 10.7811 48.5591C10.6306 49.0881 10.5396 49.4358 10.4729 49.5362C10.4159 49.6305 10.4219 49.6599 10.4268 49.8178C10.4329 49.9758 10.6246 53.1237 10.8781 53.6502C10.8781 53.6502 11.0189 53.5829 11.0686 53.6906C11.1171 53.7996 11.1887 53.9919 11.213 54.0616C11.2324 54.1327 11.3562 54.4633 11.2858 54.5906C11.2858 54.5906 11.3877 54.942 11.4423 55.1012C11.4969 55.2616 11.5054 55.5762 11.3562 55.7415C11.2021 55.9081 10.8709 56.3195 10.1902 56.4333C9.55325 56.5472 8.323 56.8533 7.78795 57.0602C7.57927 57.1557 7.36452 57.2635 7.07091 57.4276C6.713 57.6271 5.84794 57.9883 5.11877 58.1132C3.65314 58.3642 3.14114 58.2602 2.98099 57.8867C2.93367 57.779 2.95066 57.7018 2.95066 57.7018C2.95066 57.7018 2.85239 57.5292 3.146 57.2059C3.44082 56.8839 3.97223 56.5754 4.43812 56.306C4.91251 56.0366 5.42936 55.8309 5.72782 55.7024C6.13791 55.5236 6.45093 55.3363 6.787 55.0473C7.134 54.7449 7.52224 54.4914 7.91898 54.2624C7.91898 54.2624 8.14343 54.1523 8.19197 54.0592C8.38245 53.6649 8.232 53.1825 8.15921 52.7797C8.0767 52.3181 7.96023 51.8577 7.82313 51.4108C7.72607 51.0949 7.61445 50.7814 7.48099 50.479C7.48099 50.479 7.16312 49.6391 6.94594 48.9301C6.75789 48.4612 6.6766 48.2481 6.6766 48.2481C6.6766 48.2481 6.48611 47.7082 6.46549 47.451C6.44244 47.1878 6.43273 46.8719 6.40968 46.7947C6.38784 46.7188 6.25923 46.4164 6.17309 46.2866C6.0821 46.1544 5.96441 45.9315 5.87342 45.4295C5.77514 44.9275 5.70235 44.9312 5.67929 44.8846C5.65988 44.8357 5.43421 44.3214 5.65382 43.7337C5.87342 43.1497 5.93772 43.179 6.15732 42.9574C6.37449 42.7358 6.88285 42.2828 7.00539 42.2007C7.26867 42.022 7.43246 41.7526 7.59747 41.4869C7.76247 41.2322 7.94931 41.0167 8.13494 40.7816C8.36789 40.4866 9.14802 39.2866 9.30089 39.0699C9.44891 38.8495 10.6428 37.3851 10.8927 37.2676C10.8927 37.2676 10.7993 37.1831 10.8175 37.1268C10.8369 37.0704 10.9 37.0362 10.9 37.0362C10.9291 37.008 11.5673 36.3982 11.6668 36.3015C11.7614 36.2048 12.0647 36.1436 12.6968 35.5938C12.8873 35.4285 13.1542 35.2314 13.2865 35.1408C13.5522 34.9693 13.8179 34.7734 14.0399 34.5481C14.1091 34.4881 14.1588 34.4061 14.217 34.3351C14.2498 34.2984 14.2801 34.2726 14.3092 34.2408C14.3554 34.1967 14.3299 34.1869 14.342 34.1306C14.3554 34.0878 14.3857 34.051 14.4439 34.0376C14.4997 34.0229 14.4682 33.9788 14.4366 33.9788C14.3978 33.9788 14.2595 33.9604 14.2389 33.8453C14.2098 33.7327 14.1867 33.6237 14.3432 33.4315C14.4949 33.2417 14.6089 33.0029 14.5871 32.8278C14.5871 32.8278 14.2025 32.7446 14.0884 32.5989C13.9768 32.4544 13.7172 32.1177 13.4769 31.9316C13.2294 31.7442 12.8582 31.334 12.7393 31.1369C12.618 30.941 12.1836 30.4868 12.0623 30.3913C11.9397 30.3019 11.543 29.8758 11.4277 29.7435C11.4277 29.7435 11.1548 29.5574 10.9873 29.3615C10.8223 29.1656 10.6015 28.9991 10.3128 28.8656C10.0288 28.7309 9.51564 28.4138 9.38218 28.0502C9.24872 27.689 8.96482 26.9053 8.89202 26.8527C8.89202 26.8527 8.07549 27.3571 7.87773 27.5237C7.67754 27.689 7.08183 28.0893 6.38299 28.3159C5.69021 28.5424 3.28673 29.8672 3.1096 29.9358C2.93489 30.0068 1.95214 30.3276 1.73861 30.3753C1.5275 30.4243 1.46684 30.4463 1.22904 30.417C0.986384 30.39 0.82502 30.3092 0.680642 30.2039C0.536263 30.1011 0.29725 29.9786 0.232947 29.8611C0.165004 29.7435 0 29.2489 0 28.933C0 28.6146 0.109194 27.3988 0.203829 27.0902C0.298463 26.7792 0.759504 25.5817 0.818954 25.4507C0.882044 25.3209 1.19749 24.5838 1.19749 24.2888C1.19749 23.9912 1.21326 23.9435 1.29941 23.897C1.37827 23.8468 1.4268 23.8076 1.48018 23.6974C1.53478 23.5872 1.65975 23.5811 1.71677 23.5602C1.78593 23.5394 1.87085 23.428 1.90968 23.3741C1.95214 23.3178 2.20208 23.1807 2.29914 23.0974C2.39256 23.0154 2.70315 22.795 2.76867 22.6836C2.83904 22.5758 3.00526 22.4374 3.23335 22.495C3.45659 22.5489 3.57671 22.4999 3.88002 22.3848C4.18334 22.266 4.60313 22.1558 4.79361 21.9918C4.98773 21.8265 5.04718 21.7983 5.12726 21.6771C5.20855 21.551 5.29226 21.5938 5.34686 21.6061C5.40267 21.6195 5.55918 21.7457 5.433 21.993C5.31289 22.2415 5.13696 22.4068 4.99501 22.4962C4.84942 22.5819 4.56188 22.7411 4.50849 22.8072C4.45511 22.866 4.30952 23.0729 4.32286 23.2725C4.32286 23.2725 4.37867 23.3154 4.4272 23.4109C4.47816 23.5064 4.46118 23.5406 4.46118 23.6508C4.46118 23.761 4.48787 24.2361 4.50849 24.339C4.53154 24.4381 4.52184 24.5643 4.46846 24.65C4.41386 24.732 4.34834 24.7785 4.34834 24.7785C4.34834 24.7785 4.42114 24.8679 4.43448 24.9242C4.44783 24.9793 4.44783 25.0736 4.36411 25.1459C4.28283 25.2144 4.17121 25.2059 4.08506 25.1385C4.00377 25.0687 3.62524 24.5802 3.57792 24.5349C3.53909 24.4859 3.45781 24.3892 3.45781 24.3892C3.45781 24.3892 3.31221 24.6573 3.10596 24.721C3.10596 24.721 3.13265 24.7944 3.18725 24.8544C3.24184 24.9181 3.29644 25.1042 3.146 25.2022C2.99312 25.2977 2.90456 25.2585 2.84996 25.2022C2.79779 25.1471 2.7347 25.0332 2.7347 25.0332L2.72742 25.0234C2.72742 25.0234 2.70922 25.5377 2.65948 25.7164C2.61216 25.8952 2.59153 26.0091 2.59153 26.0091C2.59153 26.0091 2.68738 26.4401 2.70315 26.636C2.7165 26.8245 2.80143 26.8588 2.80143 26.8588C2.80143 26.8588 2.97129 26.5699 3.35468 26.3482C3.7405 26.1242 4.12753 25.7923 4.65166 25.5952C5.17336 25.4042 5.7436 25.4079 5.88798 25.3369C5.88798 25.3369 6.04934 25.1703 6.1282 24.9965C6.201 24.8251 6.7227 24.1945 6.97385 24.0145C7.22378 23.8333 7.84982 23.4451 8.34484 23.3337C8.34484 23.3337 8.36546 23.2076 8.4601 23.177C8.4601 23.177 8.39943 22.948 8.39943 22.8611C8.39943 22.7791 8.4601 22.6236 8.63723 22.5636C8.63723 22.5636 7.35724 21.8363 7.17646 21.731C7.00297 21.6208 6.54071 21.2534 6.29806 21.142C6.05055 21.0318 5.67444 20.9498 5.54705 20.9498C5.54705 20.9498 5.43785 21.1579 5.23403 21.0759C5.02777 20.9914 4.87247 20.8935 4.87247 20.8261C4.87247 20.8261 4.80938 20.842 4.68199 20.7392C4.55096 20.6339 4.40294 20.4674 4.39687 20.3327C4.38717 20.1943 4.42842 20.1784 4.42842 20.1784C4.42842 20.1784 4.04745 19.8992 3.93826 19.7437C3.83028 19.5944 3.5306 19.2099 3.48935 18.8524C3.44689 18.4948 3.39836 18.1214 3.60461 17.4345C3.81329 16.7464 3.92613 16.6141 4.00984 16.3264C4.08749 16.0374 4.50607 15.7215 4.90159 15.6444C5.2959 15.5685 5.26678 15.6885 5.26678 15.6885C5.26678 15.6885 5.75937 15.5024 6.01901 15.5342C6.27743 15.5685 6.59895 15.6726 6.70086 15.7215C6.80278 15.7693 6.87557 15.7766 6.98719 15.7962C7.09517 15.817 7.21165 15.8783 7.30507 15.9493C7.40456 16.0178 7.4179 16.0325 7.47007 16.0521C7.5271 16.0717 7.63508 16.2027 7.6739 16.286C7.71879 16.368 7.87409 16.499 7.94325 16.5541C8.00755 16.6092 8.23928 16.8272 8.38366 16.9043C8.52804 16.979 8.7258 17.1663 8.78525 17.3255C8.84834 17.4847 9.07158 17.923 9.17107 18.0602C9.27784 18.1973 9.58115 18.6454 9.68671 18.736C9.78862 18.8266 9.88326 18.9773 9.94149 19.0324C9.99245 19.0874 10.1781 19.2552 10.2715 19.2858C10.2715 19.2858 10.3637 19.1952 10.4571 19.2405C10.553 19.2858 10.6149 19.167 10.6185 19.1107C10.6209 19.0544 10.6913 18.9944 10.8017 18.9895C10.9327 18.9821 10.9109 18.8573 10.9424 18.7642C10.9898 18.6381 11.1232 18.5597 11.2166 18.4691C11.3731 18.3259 11.503 18.2365 11.5915 18.0418C11.6473 17.9206 11.691 17.7663 11.7141 17.6353C11.7408 17.4847 11.8912 16.8272 12.1217 16.5578C12.3583 16.2897 12.5136 16.1158 12.8776 15.8905C13.2464 15.6689 13.4017 15.5366 13.608 15.4313C13.8154 15.3236 14.5495 15.0224 14.8237 14.9514C15.0967 14.8877 15.8598 14.7628 16.043 14.7065C16.225 14.6489 16.7297 14.5657 16.9881 14.6771C16.9881 14.6771 17.8435 14.2179 18.5375 13.6866C19.2315 13.1552 19.9255 12.7193 20.2094 12.5442C20.4933 12.3605 20.93 12.1695 21.1108 11.9479C21.294 11.7201 22.1469 10.7516 22.4539 10.5043C22.7669 10.2582 23.9389 9.52966 24.053 9.4562C24.1622 9.38273 26.0597 8.21587 26.1835 8.13628C26.3121 8.06036 27.2123 7.39673 27.7462 6.93268C28.2824 6.46618 29.1087 5.86376 29.1875 5.79275C29.2652 5.72173 29.4738 5.58337 29.5818 5.45603C29.6886 5.32625 29.9652 5.22339 30.0902 5.12422C30.2212 5.02259 30.6495 4.66873 30.8727 4.40181C30.8727 4.40181 30.7441 4.53895 30.9771 4.24264C31.2052 3.94755 31.5194 3.5888 31.7293 3.4382C31.938 3.29249 31.9999 3.07822 32.1673 2.86762C32.3359 2.65702 32.524 2.46724 32.7982 2.3399C33.0712 2.21256 33.2981 2.04359 33.4885 1.85258C33.679 1.66157 33.9095 1.43138 34.2214 1.26119C34.538 1.09099 34.7455 0.881618 34.9129 0.711424C35.0816 0.540006 35.3097 0.413891 35.437 0.266962C35.562 0.118807 35.6506 0.0269763 35.6688 0.00861007C35.693 -0.00730733 35.7246 3.91597e-05 35.7416 0.0208542C35.7416 0.0208542 35.852 0.0306495 35.8811 0.118807C35.9163 0.209414 35.9745 0.364915 35.8059 0.581636C35.6409 0.794685 35.5984 0.880394 35.5317 0.95141C35.4686 1.02365 35.3109 1.22078 35.2259 1.23547C35.2259 1.23547 34.9469 1.49383 34.8899 1.56974C34.8328 1.64933 34.5671 1.94074 34.5113 1.964C34.5113 1.964 34.3051 2.20276 34.2687 2.26398C34.2298 2.32888 33.969 2.66804 33.9556 2.77212C33.9556 2.77212 34.2056 2.77701 34.3051 2.79293C34.4009 2.80885 34.6836 2.89701 34.7613 2.89701C34.8377 2.89701 34.9517 2.89701 35.0124 2.97659C35.0755 3.0574 35.101 3.10271 35.0973 3.21658C35.0913 3.33167 35.0621 3.39902 35.0221 3.47371C34.9796 3.54717 34.9044 3.6843 34.902 3.74553C34.902 3.74553 34.9202 4.0602 34.8717 4.21203C34.8717 4.21203 35.0512 4.31243 35.1216 4.36998C35.1944 4.42752 35.1992 4.49976 35.2563 4.56711C35.3133 4.6369 35.4649 4.74098 35.5256 4.77159C35.5911 4.80342 35.6069 4.89892 35.562 4.97974C35.5183 5.06544 35.4662 5.16462 35.283 5.13891C35.101 5.11197 34.936 4.93443 34.936 4.93443C34.936 4.93443 34.8535 5.12299 34.7139 5.13891C34.7139 5.13891 34.6084 5.25523 34.5793 5.33727C34.5501 5.4193 34.4737 5.48787 34.4555 5.61031C34.4337 5.7303 34.3912 5.95437 34.1583 5.93478C33.9253 5.91396 33.8064 5.52215 34.0806 5.20135C34.0806 5.20135 33.7979 5.14013 33.6778 5.14013C33.5528 5.14013 33.4121 5.15115 33.3369 5.16585C33.2532 5.18054 33.1355 5.23686 33.0384 5.31645C32.9401 5.39481 32.7618 5.60419 32.6684 5.68867C32.6684 5.68867 32.3238 6.01682 32.2328 6.06212C32.2328 6.06212 31.631 6.46128 31.3411 6.55189C31.0547 6.64004 30.7308 6.68535 30.3717 7.07716C30.0113 7.47142 28.997 8.65421 28.8223 8.86603C28.6415 9.07908 28.2327 9.50762 28.0167 9.79781C27.7971 10.0917 27.273 10.7345 27.1019 10.9133C26.9357 11.0932 26.2126 11.9136 25.9809 12.1315C25.7455 12.3483 25.0527 12.8405 24.8137 13.0266C24.571 13.2103 24.0675 13.6021 23.9426 13.7159C23.8115 13.8237 23.7084 13.8935 23.6174 13.951C23.5276 14.0061 23.376 14.1347 23.3008 14.2204C23.2255 14.3024 23.0714 14.431 22.904 14.4653C22.7402 14.4996 22.2027 14.6722 22.0669 14.7971C21.9249 14.9195 21.5318 15.2795 21.4141 15.3983C21.2964 15.5171 20.6352 16.1795 20.0528 16.6141C19.4681 17.0525 18.9124 17.5679 17.8896 17.9389C16.8668 18.3112 16.8377 18.2708 16.6424 18.365C16.447 18.4605 16.3924 18.6124 16.3924 18.6124C16.4737 18.8107 16.5574 19.0079 16.6424 19.2062C16.7649 19.5001 16.8765 19.8454 17.05 20.1086C17.107 20.1943 17.2065 20.2457 17.2696 20.3315C17.3643 20.4576 17.3788 20.6106 17.4698 20.7355C17.5535 20.8469 17.6469 20.9498 17.7234 21.071C18.0364 21.5608 18.3579 22.0346 18.7134 22.495C18.9597 22.817 19.1866 23.1745 19.4729 23.4647C19.6343 23.6264 20.7129 24.7675 21.2006 25.1703C21.6932 25.5732 23.0714 26.876 23.4755 27.1551C23.8855 27.4367 24.1464 27.8592 24.3915 28.0024C24.6438 28.1481 24.7385 28.4579 24.7724 28.5265C24.7724 28.5265 25.0564 28.9403 25.3851 29.1032C25.5089 29.1693 25.5562 29.2929 25.5489 29.4325C25.5332 29.6811 25.424 29.8843 25.3123 30.1011C25.3123 30.1011 25.4143 30.2847 25.4312 30.4084C25.4749 30.6435 25.6836 30.7769 25.7831 30.979C25.8644 31.1492 25.9445 31.3145 26.033 31.481C26.1192 31.6414 26.1592 31.8165 26.2526 31.9744C26.3473 32.1385 26.4831 32.2732 26.5984 32.4201C26.8047 32.6895 27.0752 32.9344 27.2427 33.2307C27.4635 33.6359 27.7583 34.0547 28.075 34.3963C28.1611 34.4894 28.3188 34.7049 28.4062 34.9522C28.5008 35.1995 28.7483 35.6464 28.8442 35.8154C28.9449 35.9844 29.4556 36.9651 29.5175 37.0864C29.5806 37.21 29.6352 37.3263 29.6352 37.3263C29.6352 37.3263 29.7687 37.3508 29.8196 37.4463C29.8669 37.5406 29.9555 37.7255 29.9676 37.7537C29.9786 37.7806 29.9579 37.8541 29.9167 37.9545C29.9167 37.9545 30.9747 40.4131 31.2852 41.2004C31.5983 41.9852 32.1539 43.4251 32.3578 43.8304C32.5665 44.2333 33.1476 45.2887 33.2338 45.4197C33.3163 45.5483 33.5286 45.8287 33.6632 46.2389C33.8052 46.6478 33.9374 46.7421 34.0758 46.8915C34.2165 47.0408 35.266 47.8894 35.8787 49.4774C36.4914 51.0679 37.1053 53.1813 37.2072 53.5523C37.3115 53.927 37.9424 56.0525 38.1475 56.7627C38.3938 57.3186 38.7092 58.3067 39.2042 58.7512C39.7017 59.1993 39.8849 59.2936 39.9273 59.7601C39.9273 59.7601 40.3944 59.9364 40.7002 60.6184C40.7002 60.6184 40.9732 60.9845 41.0278 61.0212C41.2316 61.1584 41.3796 61.5012 41.5264 61.6922C41.7776 62.0179 42.0797 62.2897 42.3672 62.5836C42.5443 62.7685 42.7348 63.0109 42.9532 63.1774C43.4774 63.6011 43.5198 63.5937 44.0245 64.1129C44.4625 64.5622 44.6202 64.7581 44.8544 65.4903C45.0182 66.0058 45.1335 66.4858 44.6506 66.7747C44.4965 66.869 44.1519 67.0613 43.4349 66.9829C42.9423 66.9253 42.4303 66.8396 41.8795 66.5348C41.8394 66.5127 41.1685 66.0732 40.8955 65.7671C40.6225 65.461 40.2513 65.0079 40.2015 64.9345Z" fill="#565656"/>
</svg>
